<?xml version="1.0" encoding="UTF-8" standalone="no"?>
<!DOCTYPE svg PUBLIC "-//W3C//DTD SVG 1.1//EN" "http://www.w3.org/Graphics/SVG/1.1/DTD/svg11.dtd">
<svg width="100%" height="100%" viewBox="0 0 81 47" version="1.1" xmlns="http://www.w3.org/2000/svg" xmlns:xlink="http://www.w3.org/1999/xlink" xml:space="preserve" xmlns:serif="http://www.serif.com/" style="fill-rule:evenodd;clip-rule:evenodd;stroke-linejoin:round;stroke-miterlimit:2;">
    <g transform="matrix(1,0,0,1,-9.90699,-1.63533)">
        <g transform="matrix(0.478294,0,0,0.478294,-3.49868,12.4713)">
            <path d="M36.978,19.494C34.411,19.494 32.278,18.903 30.578,17.719C28.878,16.536 28.028,14.811 28.028,12.544C28.028,10.844 28.411,9.236 29.178,7.719C29.945,6.203 31.061,4.969 32.528,4.019C33.995,3.069 35.728,2.594 37.728,2.594C38.561,2.594 39.311,2.678 39.978,2.844L43.528,-13.056C44.295,-16.256 45.603,-18.656 47.453,-20.256C49.303,-21.856 51.795,-22.656 54.928,-22.656C56.928,-22.656 58.911,-22.206 60.878,-21.306L58.378,-11.406C57.678,-11.639 57.12,-11.797 56.703,-11.881C56.286,-11.964 55.828,-12.006 55.328,-12.006C54.561,-12.006 53.961,-11.831 53.528,-11.481C53.095,-11.131 52.761,-10.522 52.528,-9.656C52.061,-7.989 51.478,-5.697 50.778,-2.781C50.078,0.136 49.528,2.444 49.128,4.144C49.395,4.211 50.445,4.428 52.278,4.794C54.111,5.161 55.478,5.344 56.378,5.344C57.378,5.344 58.153,5.128 58.703,4.694C59.253,4.261 59.628,3.744 59.828,3.144C60.028,2.544 60.211,1.761 60.378,0.794C60.445,0.261 60.511,-0.106 60.578,-0.306C63.311,1.594 64.678,4.228 64.678,7.594C64.678,11.094 63.803,13.669 62.053,15.319C60.303,16.969 58.028,17.794 55.228,17.794C53.928,17.794 52.295,17.669 50.328,17.419C48.361,17.169 46.628,16.878 45.128,16.544C44.228,17.511 43.061,18.244 41.628,18.744C40.195,19.244 38.645,19.494 36.978,19.494Z" style="fill:white;fill-rule:nonzero;"/>
            <path d="M69.828,17.244C68.028,17.244 66.686,16.853 65.803,16.069C64.92,15.286 64.478,14.094 64.478,12.494C64.478,11.628 64.645,10.478 64.978,9.044L67.878,-2.756C68.578,-5.789 68.911,-8.189 68.878,-9.956L79.378,-10.956C78.511,-7.356 77.811,-4.506 77.278,-2.406L75.828,3.394C75.728,3.728 75.678,4.044 75.678,4.344C75.678,5.144 76.111,5.544 76.978,5.544C77.645,5.544 78.261,5.261 78.828,4.694C79.395,4.128 79.795,3.344 80.028,2.344L81.178,-2.406C81.811,-4.872 82.195,-7.372 82.328,-9.906L92.778,-10.956L90.778,-2.756L89.378,2.744C89.278,3.178 89.228,3.544 89.228,3.844C89.228,4.411 89.37,4.811 89.653,5.044C89.936,5.278 90.278,5.394 90.678,5.394C91.045,5.394 91.611,5.261 92.378,4.994C93.145,4.728 93.995,4.311 94.928,3.744L93.128,10.994C91.595,12.894 89.928,14.403 88.128,15.519C86.328,16.636 84.628,17.194 83.028,17.194C81.395,17.194 80.203,16.869 79.453,16.219C78.703,15.569 78.261,14.903 78.128,14.219C77.995,13.536 77.928,12.794 77.928,11.994L77.828,11.994C75.895,15.494 73.228,17.244 69.828,17.244Z" style="fill:white;fill-rule:nonzero;"/>
            <path d="M102.478,17.294C99.445,17.294 97.07,16.428 95.353,14.694C93.636,12.961 92.778,10.394 92.778,6.994C92.778,6.361 92.795,5.878 92.828,5.544C93.061,2.378 93.878,-0.481 95.278,-3.031C96.678,-5.581 98.478,-7.581 100.678,-9.031C102.878,-10.481 105.261,-11.206 107.828,-11.206C110.095,-11.206 111.87,-10.631 113.153,-9.481C114.436,-8.331 115.078,-6.706 115.078,-4.606C115.078,-3.372 114.895,-2.156 114.528,-0.956L106.178,2.444C106.511,1.244 106.678,0.244 106.678,-0.556C106.678,-1.822 106.211,-2.456 105.278,-2.456C104.411,-2.456 103.728,-1.931 103.228,-0.881C102.728,0.169 102.478,1.244 102.478,2.344C102.478,3.478 102.811,4.269 103.478,4.719C104.145,5.169 105.145,5.394 106.478,5.394C107.878,5.394 109.37,5.053 110.953,4.369C112.536,3.686 114.245,2.811 116.078,1.744L116.228,8.144C114.261,11.311 112.095,13.628 109.728,15.094C107.361,16.561 104.945,17.294 102.478,17.294Z" style="fill:white;fill-rule:nonzero;"/>
            <path d="M119.128,17.194C117.261,17.194 115.803,16.361 114.753,14.694C113.703,13.028 113.278,10.778 113.478,7.944C113.711,4.978 114.32,2.019 115.303,-0.931C116.286,-3.881 117.678,-6.331 119.478,-8.281C121.278,-10.231 123.395,-11.206 125.828,-11.206C127.428,-11.206 128.77,-10.681 129.853,-9.631C130.936,-8.581 131.395,-6.956 131.228,-4.756L131.378,-4.756L131.728,-6.206C132.228,-8.006 132.511,-9.389 132.578,-10.356L142.028,-10.956L141.378,-8.406C140.945,-6.506 140.561,-4.972 140.228,-3.806L138.578,2.694C138.445,3.128 138.378,3.561 138.378,3.994C138.378,4.928 138.795,5.394 139.628,5.394C140.695,5.394 141.678,4.661 142.578,3.194C143.145,3.761 144.061,4.294 145.328,4.794C146.595,5.294 147.878,5.544 149.178,5.544C150.345,5.544 150.945,5.261 150.978,4.694C150.978,4.461 150.878,4.278 150.678,4.144C150.478,4.011 150.095,3.861 149.528,3.694C148.195,3.361 147.12,2.994 146.303,2.594C145.486,2.194 144.845,1.611 144.378,0.844C143.911,0.078 143.678,-0.972 143.678,-2.306C143.678,-3.806 144.011,-5.222 144.678,-6.556C145.345,-7.889 146.445,-8.989 147.978,-9.856C149.511,-10.722 151.478,-11.156 153.878,-11.156C155.811,-11.156 157.578,-10.922 159.178,-10.456C160.778,-9.989 162.061,-9.356 163.028,-8.556L160.878,0.394C159.978,-0.306 158.861,-0.939 157.528,-1.506C156.195,-2.072 154.811,-2.356 153.378,-2.356C152.878,-2.356 152.503,-2.306 152.253,-2.206C152.003,-2.106 151.861,-1.906 151.828,-1.606C151.828,-1.339 151.978,-1.139 152.278,-1.006C152.578,-0.872 153.245,-0.672 154.278,-0.406C156.545,0.194 158.17,1.019 159.153,2.069C160.136,3.119 160.628,4.544 160.628,6.344C160.628,8.111 160.261,9.819 159.528,11.469C158.795,13.119 157.553,14.503 155.803,15.619C154.053,16.736 151.778,17.294 148.978,17.294C146.878,17.294 145.095,17.003 143.628,16.419C142.161,15.836 140.878,14.928 139.778,13.694C138.511,14.794 137.236,15.653 135.953,16.269C134.67,16.886 133.478,17.194 132.378,17.194C130.478,17.194 129.103,16.778 128.253,15.944C127.403,15.111 127.011,13.844 127.078,12.144L126.978,12.144C125.978,13.811 124.795,15.069 123.428,15.919C122.061,16.769 120.628,17.194 119.128,17.194ZM123.678,3.044C123.678,3.978 123.878,4.628 124.278,4.994C124.678,5.361 125.178,5.544 125.778,5.544C126.845,5.544 127.703,5.036 128.353,4.019C129.003,3.003 129.378,1.761 129.478,0.294C129.545,-0.772 129.378,-1.497 128.978,-1.881C128.578,-2.264 128.045,-2.456 127.378,-2.456C126.311,-2.456 125.428,-1.906 124.728,-0.806C124.028,0.294 123.678,1.578 123.678,3.044Z" style="fill:white;fill-rule:nonzero;"/>
            <path d="M42.328,68.994C39.295,68.994 36.803,68.486 34.853,67.469C32.903,66.453 31.478,65.119 30.578,63.469C29.678,61.819 29.228,60.011 29.228,58.044C29.228,55.778 29.695,53.861 30.628,52.294C31.561,50.728 32.736,49.569 34.153,48.819C35.57,48.069 37.028,47.694 38.528,47.694C39.861,47.694 41.061,48.061 42.128,48.794C41.295,49.661 40.878,50.494 40.878,51.294C40.878,52.061 41.186,52.703 41.803,53.219C42.42,53.736 43.111,53.994 43.878,53.994C45.378,53.994 46.545,53.494 47.378,52.494C48.211,51.494 48.895,49.861 49.428,47.594L51.478,38.794L49.428,38.794C48.295,38.794 47.478,39.228 46.978,40.094C46.478,40.961 46.228,42.028 46.228,43.294C46.228,43.661 46.261,44.178 46.328,44.844C43.695,44.844 41.736,44.003 40.453,42.319C39.17,40.636 38.528,38.578 38.528,36.144C38.528,34.644 38.928,33.278 39.728,32.044C40.528,30.811 41.628,29.844 43.028,29.144C44.428,28.444 45.978,28.094 47.678,28.094C49.445,28.094 50.611,28.111 51.178,28.144C51.578,28.144 52.103,28.153 52.753,28.169C53.403,28.186 54.328,28.194 55.528,28.194C58.395,28.194 61.445,28.044 64.678,27.744C64.145,29.411 63.445,32.028 62.578,35.594L62.078,37.594L61.028,41.944C61.695,42.078 62.611,42.144 63.778,42.144C65.078,42.144 66.078,42.078 66.778,41.944L67.828,37.694C68.761,33.994 69.278,30.794 69.378,28.094L76.378,28.044C78.211,28.044 79.795,27.828 81.128,27.394L72.728,61.794C71.961,64.894 70.745,67.436 69.078,69.419C67.411,71.403 65.586,72.836 63.603,73.719C61.62,74.603 59.695,75.044 57.828,75.044C55.995,75.044 54.411,74.661 53.078,73.894C55.478,72.661 57.403,70.894 58.853,68.594C60.303,66.294 61.428,63.528 62.228,60.294C62.361,59.728 62.645,58.594 63.078,56.894L63.828,53.944C63.061,53.778 62.078,53.694 60.878,53.694C60.078,53.694 59.145,53.761 58.078,53.894C56.978,58.428 55.145,62.078 52.578,64.844C50.011,67.611 46.595,68.994 42.328,68.994Z" style="fill:white;fill-rule:nonzero;"/>
            <path d="M82.278,67.244C80.478,67.244 79.136,66.853 78.253,66.069C77.37,65.286 76.928,64.094 76.928,62.494C76.928,61.628 77.095,60.478 77.428,59.044L80.328,47.244C81.028,44.211 81.361,41.811 81.328,40.044L91.828,39.044C90.961,42.644 90.261,45.494 89.728,47.594L88.278,53.394C88.178,53.728 88.128,54.044 88.128,54.344C88.128,55.144 88.561,55.544 89.428,55.544C90.095,55.544 90.711,55.261 91.278,54.694C91.845,54.128 92.245,53.344 92.478,52.344L93.628,47.594C94.261,45.128 94.645,42.628 94.778,40.094L105.228,39.044L103.228,47.244L101.828,52.744C101.728,53.178 101.678,53.544 101.678,53.844C101.678,54.411 101.82,54.811 102.103,55.044C102.386,55.278 102.728,55.394 103.128,55.394C103.495,55.394 104.061,55.261 104.828,54.994C105.595,54.728 106.445,54.311 107.378,53.744L105.578,60.994C104.045,62.894 102.378,64.403 100.578,65.519C98.778,66.636 97.078,67.194 95.478,67.194C93.845,67.194 92.653,66.869 91.903,66.219C91.153,65.569 90.711,64.903 90.578,64.219C90.445,63.536 90.378,62.794 90.378,61.994L90.278,61.994C88.345,65.494 85.678,67.244 82.278,67.244Z" style="fill:white;fill-rule:nonzero;"/>
            <path d="M118.628,67.294C116.761,67.294 115.32,66.761 114.303,65.694C113.286,64.628 112.745,63.411 112.678,62.044L112.578,62.044L110.978,66.544L107.228,66.544C105.828,66.544 104.845,66.353 104.278,65.969C103.711,65.586 103.428,64.911 103.428,63.944C103.428,63.078 103.695,61.628 104.228,59.594L109.728,37.294C110.161,35.494 110.47,34.061 110.653,32.994C110.836,31.928 110.945,30.894 110.978,29.894L121.178,29.144L118.878,38.544C118.378,40.578 117.745,42.661 116.978,44.794L117.128,44.794C118.261,42.661 119.445,41.144 120.678,40.244C121.911,39.344 123.345,38.894 124.978,38.894C127.011,38.894 128.553,39.686 129.603,41.269C130.653,42.853 131.078,45.128 130.878,48.094C130.711,50.428 130.22,53.069 129.403,56.019C128.586,58.969 127.278,61.586 125.478,63.869C123.678,66.153 121.395,67.294 118.628,67.294ZM115.628,52.994C115.628,53.928 115.836,54.586 116.253,54.969C116.67,55.353 117.178,55.544 117.778,55.544C118.878,55.544 119.761,55.028 120.428,53.994C121.095,52.961 121.478,51.728 121.578,50.294C121.678,48.461 120.961,47.544 119.428,47.544C118.328,47.544 117.42,48.086 116.703,49.169C115.986,50.253 115.628,51.528 115.628,52.994Z" style="fill:white;fill-rule:nonzero;"/>
            <path d="M140.578,67.294C137.445,67.294 135.02,66.461 133.303,64.794C131.586,63.128 130.728,60.711 130.728,57.544C130.728,54.644 131.311,51.753 132.478,48.869C133.645,45.986 135.336,43.603 137.553,41.719C139.77,39.836 142.378,38.894 145.378,38.894C148.211,38.894 150.22,39.503 151.403,40.719C152.586,41.936 153.178,43.511 153.178,45.444C153.178,46.578 153.011,47.753 152.678,48.969C152.345,50.186 151.961,51.294 151.528,52.294L139.778,53.094C140.011,54.661 141.245,55.444 143.478,55.444C147.378,55.444 151.311,54.328 155.278,52.094L154.678,57.694C152.511,61.061 150.22,63.503 147.803,65.019C145.386,66.536 142.978,67.294 140.578,67.294ZM145.328,49.294C145.461,48.761 145.528,48.394 145.528,48.194C145.528,47.694 145.378,47.294 145.078,46.994C144.778,46.694 144.345,46.544 143.778,46.544C142.978,46.544 142.278,46.828 141.678,47.394C141.078,47.961 140.611,48.694 140.278,49.594L145.328,49.294Z" style="fill:white;fill-rule:nonzero;"/>
            <path d="M155.928,66.544C154.195,66.544 152.995,66.353 152.328,65.969C151.661,65.586 151.328,64.894 151.328,63.894C151.328,63.361 151.42,62.644 151.603,61.744C151.786,60.844 152.011,59.878 152.278,58.844L155.078,47.294C155.978,43.594 156.395,41.194 156.328,40.094L165.928,39.044C165.795,39.744 165.345,41.761 164.578,45.094L164.228,46.594L164.328,46.594C165.161,44.494 166.37,42.686 167.953,41.169C169.536,39.653 171.445,38.894 173.678,38.894C176.978,38.894 178.495,40.628 178.228,44.094C178.161,45.194 177.853,46.686 177.303,48.569C176.753,50.453 176.111,52.011 175.378,53.244L167.078,53.244C167.345,52.678 167.478,52.128 167.478,51.594C167.478,50.728 167.028,50.294 166.128,50.294C165.295,50.294 164.603,50.703 164.053,51.519C163.503,52.336 163.028,53.611 162.628,55.344L161.828,58.494C161.328,60.628 161.078,62.661 161.078,64.594C161.078,65.528 161.095,66.178 161.128,66.544L155.928,66.544Z" style="fill:white;fill-rule:nonzero;"/>
            <path d="M182.778,67.294C180.911,67.294 179.411,66.828 178.278,65.894C177.145,64.961 176.578,63.478 176.578,61.444C176.578,60.344 176.745,59.144 177.078,57.844L179.278,48.994L178.028,48.994L179.478,43.044C180.911,42.011 182.303,40.561 183.653,38.694C185.003,36.828 186.161,34.694 187.128,32.294L192.878,32.294L191.128,39.544C192.828,39.511 194.345,39.328 195.678,38.994L193.178,48.994L188.778,48.994L187.878,52.744C187.778,53.144 187.728,53.511 187.728,53.844C187.728,54.378 187.886,54.769 188.203,55.019C188.52,55.269 189.045,55.394 189.778,55.394C190.445,55.394 191.078,55.294 191.678,55.094C192.278,54.894 193.011,54.544 193.878,54.044L191.628,63.244C190.461,64.578 189.095,65.586 187.528,66.269C185.961,66.953 184.378,67.294 182.778,67.294Z" style="fill:white;fill-rule:nonzero;"/>
        </g>
    </g>
</svg>
